<?xml version="1.0" encoding="UTF-8" standalone="no"?>
<!DOCTYPE svg PUBLIC "-//W3C//DTD SVG 1.1//EN"
 "http://www.w3.org/Graphics/SVG/1.1/DTD/svg11.dtd">
<!-- Generated by graphviz version 2.42.4 (0)
 -->
<!-- Title: BackfillArchitecture Pages: 1 -->
<svg width="1644pt" height="338pt"
 viewBox="0.00 0.00 1644.00 337.79" xmlns="http://www.w3.org/2000/svg" xmlns:xlink="http://www.w3.org/1999/xlink">
<g id="graph0" class="graph" transform="scale(1 1) rotate(0) translate(18 319.79)">
<title>BackfillArchitecture</title>
<polygon fill="white" stroke="transparent" points="-18,18 -18,-319.79 1626,-319.79 1626,18 -18,18"/>
<!-- owner -->
<g id="node1" class="node">
<title>owner</title>
<path fill="none" stroke="black" d="M205.5,-215.79C205.5,-215.79 64.5,-215.79 64.5,-215.79 58.5,-215.79 52.5,-209.79 52.5,-203.79 52.5,-203.79 52.5,-189.79 52.5,-189.79 52.5,-183.79 58.5,-177.79 64.5,-177.79 64.5,-177.79 205.5,-177.79 205.5,-177.79 211.5,-177.79 217.5,-183.79 217.5,-189.79 217.5,-189.79 217.5,-203.79 217.5,-203.79 217.5,-209.79 211.5,-215.79 205.5,-215.79"/>
<text text-anchor="middle" x="135" y="-199.99" font-family="Helvetica,sans-Serif" font-size="11.00">Business owner / operator</text>
<text text-anchor="middle" x="135" y="-187.99" font-family="Helvetica,sans-Serif" font-size="11.00">Policy authority</text>
</g>
<!-- strands -->
<g id="node3" class="node">
<title>strands</title>
<path fill="none" stroke="black" d="M595,-153.79C595,-153.79 424,-153.79 424,-153.79 418,-153.79 412,-147.79 412,-141.79 412,-141.79 412,-115.79 412,-115.79 412,-109.79 418,-103.79 424,-103.79 424,-103.79 595,-103.79 595,-103.79 601,-103.79 607,-109.79 607,-115.79 607,-115.79 607,-141.79 607,-141.79 607,-147.79 601,-153.79 595,-153.79"/>
<text text-anchor="middle" x="509.5" y="-137.99" font-family="Helvetica,sans-Serif" font-size="11.00">Strands Agents SDK</text>
<text text-anchor="middle" x="509.5" y="-125.99" font-family="Helvetica,sans-Serif" font-size="11.00">Custom Model + @tool</text>
<text text-anchor="middle" x="509.5" y="-113.99" font-family="Helvetica,sans-Serif" font-size="11.00">BeforeToolCall interrupt/resume</text>
</g>
<!-- owner&#45;&gt;strands -->
<g id="edge1" class="edge">
<title>owner&#45;&gt;strands</title>
<path fill="none" stroke="black" d="M217.75,-181.87C271.8,-172 343.22,-158.96 401.75,-148.28"/>
<polygon fill="black" stroke="black" points="402.56,-151.69 411.77,-146.45 401.3,-144.8 402.56,-151.69"/>
<text text-anchor="middle" x="341" y="-169.59" font-family="Helvetica,sans-Serif" font-size="9.00">goal / policy decision</text>
</g>
<!-- clients -->
<g id="node2" class="node">
<title>clients</title>
<path fill="none" stroke="black" d="M1596,-219.79C1596,-219.79 1452,-219.79 1452,-219.79 1446,-219.79 1440,-213.79 1440,-207.79 1440,-207.79 1440,-193.79 1440,-193.79 1440,-187.79 1446,-181.79 1452,-181.79 1452,-181.79 1596,-181.79 1596,-181.79 1602,-181.79 1608,-187.79 1608,-193.79 1608,-193.79 1608,-207.79 1608,-207.79 1608,-213.79 1602,-219.79 1596,-219.79"/>
<text text-anchor="middle" x="1524" y="-203.99" font-family="Helvetica,sans-Serif" font-size="11.00">Waitlist clients</text>
<text text-anchor="middle" x="1524" y="-191.99" font-family="Helvetica,sans-Serif" font-size="11.00">Offer / reply / confirmation</text>
</g>
<!-- core -->
<g id="node4" class="node">
<title>core</title>
<path fill="none" stroke="black" d="M972,-233.79C972,-233.79 750,-233.79 750,-233.79 744,-233.79 738,-227.79 738,-221.79 738,-221.79 738,-183.79 738,-183.79 738,-177.79 744,-171.79 750,-171.79 750,-171.79 972,-171.79 972,-171.79 978,-171.79 984,-177.79 984,-183.79 984,-183.79 984,-221.79 984,-221.79 984,-227.79 978,-233.79 972,-233.79"/>
<text text-anchor="middle" x="861" y="-217.99" font-family="Helvetica,sans-Serif" font-size="11.00">Deterministic BackfillApplication</text>
<text text-anchor="middle" x="861" y="-205.99" font-family="Helvetica,sans-Serif" font-size="11.00">Eligibility • order • policy • idempotency</text>
<text text-anchor="middle" x="861" y="-193.99" font-family="Helvetica,sans-Serif" font-size="11.00">booking verification • terminal state</text>
<text text-anchor="middle" x="861" y="-181.99" font-family="Helvetica,sans-Serif" font-size="11.00">recovered&#45;value accounting</text>
</g>
<!-- clients&#45;&gt;core -->
<g id="edge7" class="edge">
<title>clients&#45;&gt;core</title>
<path fill="none" stroke="black" d="M1492.34,-219.9C1458.31,-239.88 1401.05,-269.95 1347,-281.79 1209.69,-311.87 1048.23,-270.51 950.58,-237.2"/>
<polygon fill="black" stroke="black" points="951.63,-233.86 941.04,-233.91 949.35,-240.48 951.63,-233.86"/>
<text text-anchor="middle" x="1236" y="-294.59" font-family="Helvetica,sans-Serif" font-size="9.00">observed response</text>
</g>
<!-- strands&#45;&gt;core -->
<g id="edge2" class="edge">
<title>strands&#45;&gt;core</title>
<path fill="none" stroke="black" d="M607.39,-149.31C644.72,-157.21 688,-166.37 728.08,-174.86"/>
<polygon fill="black" stroke="black" points="727.41,-178.3 737.92,-176.94 728.86,-171.45 727.41,-178.3"/>
<text text-anchor="middle" x="672.5" y="-172.59" font-family="Helvetica,sans-Serif" font-size="9.00">bounded tool calls</text>
</g>
<!-- core&#45;&gt;owner -->
<g id="edge9" class="edge">
<title>core&#45;&gt;owner</title>
<path fill="none" stroke="black" d="M737.7,-201.78C593.57,-200.58 357.35,-198.63 227.92,-197.55"/>
<polygon fill="black" stroke="black" points="227.67,-194.05 217.64,-197.47 227.62,-201.05 227.67,-194.05"/>
<text text-anchor="middle" x="509.5" y="-202.59" font-family="Helvetica,sans-Serif" font-size="9.00">policy exception only</text>
</g>
<!-- state -->
<g id="node5" class="node">
<title>state</title>
<path fill="none" stroke="black" d="M1317.5,-265.79C1317.5,-265.79 1154.5,-265.79 1154.5,-265.79 1148.5,-265.79 1142.5,-259.79 1142.5,-253.79 1142.5,-253.79 1142.5,-239.79 1142.5,-239.79 1142.5,-233.79 1148.5,-227.79 1154.5,-227.79 1154.5,-227.79 1317.5,-227.79 1317.5,-227.79 1323.5,-227.79 1329.5,-233.79 1329.5,-239.79 1329.5,-239.79 1329.5,-253.79 1329.5,-253.79 1329.5,-259.79 1323.5,-265.79 1317.5,-265.79"/>
<text text-anchor="middle" x="1236" y="-249.99" font-family="Helvetica,sans-Serif" font-size="11.00">Durable workflow state / audit</text>
<text text-anchor="middle" x="1236" y="-237.99" font-family="Helvetica,sans-Serif" font-size="11.00">Offer intent • outbox • ledger</text>
</g>
<!-- core&#45;&gt;state -->
<g id="edge3" class="edge">
<title>core&#45;&gt;state</title>
<path fill="none" stroke="black" d="M984.13,-217.2C1032.14,-222.86 1086.62,-229.29 1132.52,-234.7"/>
<polygon fill="black" strroke="black" points="1132.14,-238.18 1142.48,-235.88 1132.96,-231.23 1132.14,-238.18"/>
<text text-anchor="middle" x="1054.5" y="-232.59" font-family="Helvetica,sans-Serif" font-size="9.00">exact durable writes</text>
</g>
<!-- calendar -->
<g id="node6" class="node">
<title>calendar</title>
<path fill="none" stroke="black" d="M1335,-192.79C1335,-192.79 1137,-192.79 1137,-192.79 1131,-192.79 1125,-186.79 1125,-180.79 1125,-180.79 1125,-142.79 1125,-142.79 1125,-136.79 1131,-130.79 1137,-130.79 1137,-130.79 1335,-130.79 1335,-130.79 1341,-130.79 1347,-136.79 1347,-142.79 1347,-142.79 1347,-180.79 1347,-180.79 1347,-186.79 1341,-192.79 1335,-192.79"/>
<text text-anchor="middle" x="1236" y="-176.99" font-family="Helvetica,sans-Serif" font-size="11.00">Calendar adapter</text>
<text text-anchor="middle" x="1236" y="-164.99" font-family="Helvetica,sans-Serif" font-size="11.00">Deterministic booking key / event ID</text>
<text text-anchor="middle" x="1236" y="-152.99" font-family="Helvetica,sans-Serif" font-size="11.00">create → readback → verify</text>
<text text-anchor="middle" x="1236" y="-140.99" font-family="Helvetica,sans-Serif" font-size="11.00">reconcile ambiguous outcomes</text>
</g>
<!-- core&#45;&gt;calendar -->
<g id="edge4" class="edge">
<title>core&#45;&gt;calendar</title>
<path fill="none" stroke="black" d="M984.13,-189.37C1026.13,-184.75 1073.09,-179.59 1114.92,-174.99"/>
<polygon fill="black" stroke="black" points="1115.32,-178.47 1124.87,-173.9 1114.55,-171.51 1115.32,-178.47"/>
<text text-anchor="middle" x="1054.5" y="-188.59" font-family="Helvetica,sans-Serif" font-size="9.00">booking operations</text>
</g>
<!-- gmail -->
<g id="node7" class="node">
<title>gmail</title>
<path fill="none" stroke="black" d="M1314.5,-98.79C1314.5,-98.79 1157.5,-98.79 1157.5,-98.79 1151.5,-98.79 1145.5,-92.79 1145.5,-86.79 1145.5,-86.79 1145.5,-48.79 1145.5,-48.79 1145.5,-42.79 1151.5,-36.79 1157.5,-36.79 1157.5,-36.79 1314.5,-36.79 1314.5,-36.79 1320.5,-36.79 1326.5,-42.79 1326.5,-48.79 1326.5,-48.79 1326.5,-86.79 1326.5,-86.79 1326.5,-92.79 1320.5,-98.79 1314.5,-98.79"/>
<text text-anchor="middle" x="1236" y="-82.99" font-family="Helvetica,sans-Serif" font-size="11.00">Gmail adapter</text>
<text text-anchor="middle" x="1236" y="-70.99" font-family="Helvetica,sans-Serif" font-size="11.00">Deterministic X&#45;Backfill&#45;Token</text>
<text text-anchor="middle" x="1236" y="-58.99" font-family="Helvetica,sans-Serif" font-size="11.00">durable outbox</text>
<text text-anchor="middle" x="1236" y="-46.99" font-family="Helvetica,sans-Serif" font-size="11.00">reconcile before resend</text>
</g>
<!-- core&#45;&gt;gmail -->
<g id="edge5" class="edge">
<title>core&#45;&gt;gmail</title>
<path fill="none" stroke="black" d="M923.29,-171.77C949.07,-159.37 979.62,-145.52 1008,-134.79 1049.1,-119.25 1095.47,-105.01 1135.54,-93.68"/>
<polygon fill="black" stroke="black" points="1136.63,-97.01 1145.32,-90.94 1134.74,-90.27 1136.63,-97.01"/>
<text text-anchor="middle" x="1054.5" y="-137.59" font-family="Helvetica,sans-Serif" font-size="9.00">offer / confirmation</text>
</g>
<!-- calendar&#45;&gt;core -->
<g id="edge8" class="edge">
<title>calendar&#45;&gt;core</title>
<path fill="none" stroke="black" d="M1124.84,-153.3C1087.57,-152.3 1045.82,-153.22 1008,-158.79 992.28,-161.11 975.9,-164.76 960.03,-168.99"/>
<polygon fill="black" stroke="black" points="958.94,-165.66 950.24,-171.69 960.81,-172.41 958.94,-165.66"/>
<text text-anchor="middle" x="1054.5" y="-161.59" font-family="Helvetica,sans-Serif" font-size="9.00">provider verification</text>
</g>
<!-- gmail&#45;&gt;clients -->
<g id="edge6" class="edge">
<title>gmail&#45;&gt;clients</title>
<path fill="none" stroke="black" d="M1311.19,-98.88C1323.21,-104.09 1335.48,-109.52 1347,-114.79 1391.28,-135.06 1441.1,-159.56 1476.4,-177.22"/>
<polygon fill="black" stroke="black" points="1474.99,-180.43 1485.5,-181.78 1478.13,-174.17 1474.99,-180.43"/>
<text text-anchor="middle" x="1393.5" y="-149.59" font-family="Helvetica,sans-Serif" font-size="9.00">messages</text>
</g>
<!-- boundary -->
<g id="node8" class="node">
<title>boundary</title>
<polygon fill="none" stroke="black" points="264,-91.79 0,-91.79 0,-17.79 270,-17.79 270,-85.79 264,-91.79"/>
<polyline fill="none" stroke="black" points="264,-91.79 264,-85.79 "/>
<polyline fill="none" stroke="black" points="270,-85.79 264,-85.79 "/>
<text text-anchor="middle" x="135" y="-75.99" font-family="Helvetica,sans-Serif" font-size="11.00">Evidence boundary</text>
<text text-anchor="middle" x="135" y="-63.99" font-family="Helvetica,sans-Serif" font-size="11.00">E2: mocks/fixtures</text>
<text text-anchor="middle" x="135" y="-51.99" font-family="Helvetica,sans-Serif" font-size="11.00">E3: clean real Strands runtime</text>
<text text-anchor="middle" x="135" y="-39.99" font-family="Helvetica,sans-Serif" font-size="11.00">E4: authorized provider mutation + readback</text>
<text text-anchor="middle" x="135" y="-27.99" font-family="Helvetica,sans-Serif" font-size="11.00">No AgentCore/Bedrock deployment claimed</text>
</g>
<!-- boundary&#45;&gt;strands -->
<g id="edge10" class="edge">
<title>boundary&#45;&gt;strands</title>
<path fill="none" stroke="black" stroke-dasharray="5,2" d="M270.22,-81.45C317.02,-90.75 368.59,-101 411.75,-109.57"/>
</g>
<!-- boundary&#45;&gt;calendar -->
<g id="edge11" class="edge">
<title>boundary&#45;&gt;calendar</title>
<path fill="none" stroke="black" stroke-dasharray="5,2" d="M270.09,-50.37C498.48,-44.52 952.67,-40.63 1101,-95.79 1113.75,-100.53 1113.31,-107.83 1125,-114.79 1134.55,-120.47 1144.91,-125.83 1155.33,-130.76"/>
</g>
<!-- boundary&#45;&gt;gmail -->
<g id="edge12" class="edge">
<title>boundary&#45;&gt;gmail</title>
<path fill="none" stroke="black" stroke-dasharray="5,2" d="M270.3,-32.07C278.3,-31.18 286.25,-30.4 294,-29.79 651.56,-1.68 745.75,19.61 1101,-29.79 1115.49,-31.81 1130.62,-34.99 1145.27,-38.68"/>
</g>
</g>
</svg>
